<svg width="128" height="128" version="1.1" xmlns="http://www.w3.org/2000/svg" viewBox="0 0 128 128" xml:space="preserve">
    <path fill="#8caaee" d="M62.693,111.645c-1.384-0.621-8.292-3.981-8.292-9.321c0-6.408,5.999-6.408,7.97-6.408h3.257c1.971,0,7.97,0,7.97,6.408c0,5.34-6.908,8.7-8.292,9.321l-1.306,0.587L62.693,111.645z"/>
    <circle fill="#8caaee" cx="48" cy="80" r="6.4"/>
    <path fill="#232634" d="M64,124.8c-8.538,0-34.995-14.168-38.374-41.201c-0.851-6.808,0.083-13.824,2.936-21.813c-2.413-0.228-4.711-0.695-6.865-1.395c-10.968-3.563-17.628-12.817-17.905-13.21l-1.764-2.488l2.4-1.882c0.397-0.311,9.813-7.612,19.661-7.612c1.944,0,3.8,0.284,5.517,0.843c3.776,1.227,7.166,3.832,10.114,7.761c6.345-5.713,14.494-8.604,24.281-8.604s17.937,2.889,24.281,8.602c2.948-3.93,6.34-6.535,10.116-7.761c1.72-0.557,3.576-0.841,5.515-0.841c9.85,0,19.266,7.301,19.661,7.612l2.4,1.882l-1.764,2.485c-0.277,0.395-6.938,9.647-17.907,13.21c-2.155,0.7-4.452,1.167-6.865,1.395c2.852,7.987,3.787,15.006,2.936,21.813C98.995,110.632,72.538,124.8,64,124.8z M62.364,95.992c-5.359,0.002-7.964,2.099-7.964,6.408c0,5.333,6.908,8.7,8.295,9.321c0.412,0.186,0.853,0.28,1.305,0.28c0.452,0,0.894-0.094,1.314-0.282c1.378-0.619,8.286-3.985,8.286-9.319c0-4.311-2.607-6.408-7.97-6.408H62.364z M80,73.601c-3.529,0-6.4,2.871-6.4,6.4s2.871,6.4,6.4,6.4s6.4-2.871,6.4-6.4S83.529,73.601,80,73.601z M48,73.601c-3.529,0-6.4,2.871-6.4,6.4s2.871,6.4,6.4,6.4s6.4-2.871,6.4-6.4S51.529,73.601,48,73.601z"/>
    <circle fill="#8caaee" cx="80" cy="80" r="6.4"/>
    <path fill="#ca9ee6" d="M125.55,40.295c-1.081-0.849-10.88-8.295-21.636-8.295c-2.276,0-4.465,0.335-6.507,0.999c-3.518,1.144-6.718,3.264-9.566,6.336c-1.515-1.118-3.132-2.082-4.809-2.948c11.524-6.63,19.367-18.961,19.367-33.186c0-1.768-1.431-3.2-3.2-3.2c-1.769,0-3.2,1.432-3.2,3.2c0,5.495-1.521,10.592-3.97,15.115c-3.313-1.515-5.63-4.84-5.63-8.715c0-1.768-1.431-3.2-3.2-3.2c-1.769,0-3.2,1.432-3.2,3.2c0,6.08,3.45,11.292,8.461,13.982c-3.687,4.414-8.482,7.793-14.02,9.722c-3.303-0.792-6.756-1.304-10.441-1.304c-3.684,0-7.138,0.512-10.438,1.306c-5.538-1.929-10.334-5.308-14.02-9.722c5.009-2.692,8.459-7.904,8.459-13.984c0-1.768-1.431-3.2-3.2-3.2c-1.769,0-3.2,1.432-3.2,3.2c0,3.874-2.317,7.2-5.63,8.715c-2.449-4.523-3.97-9.619-3.97-15.115c0-1.768-1.431-3.2-3.2-3.2c-1.769,0-3.2,1.432-3.2,3.2c0,14.225,7.842,26.555,19.367,33.186c-1.677,0.866-3.294,1.831-4.809,2.948c-2.848-3.072-6.048-5.193-9.568-6.336c-2.04-0.661-4.228-0.999-6.503-0.999c-10.758,0-20.557,7.445-21.638,8.295c-2.686,2.108-3.245,5.952-1.269,8.736c0.303,0.427,7.563,10.517,19.529,14.402c1.173,0.382,2.383,0.7,3.624,0.954c-1.658,5.609-2.79,12.335-1.882,19.605c3.608,28.877,32.284,44.009,41.549,44.009c9.265,0,37.941-15.132,41.551-44.006c0.909-7.271-0.224-13.999-1.882-19.605c1.242-0.256,2.451-0.574,3.624-0.954c11.964-3.887,19.226-13.976,19.529-14.402C128.795,46.247,128.236,42.403,125.55,40.295z M105.295,57.347c-3.247,1.054-6.49,1.404-9.406,1.404c-0.371,0-0.738-0.006-1.097-0.017c2.974,7.038,5.506,15.503,4.386,24.467c-3.2,25.6-28.8,38.4-35.2,38.4c-6.4,0-32-12.8-35.2-38.4c-1.12-8.964,1.412-17.429,4.388-24.467c-0.36,0.011-0.725,0.017-1.097,0.017c-2.916,0-6.161-0.348-9.406-1.404c-10.086-3.275-16.286-12.017-16.286-12.017s8.83-6.929,17.685-6.929c1.523,0,3.049,0.205,4.529,0.687c4.836,1.57,8.292,5.796,10.613,9.773c5.686-6.522,13.826-10.46,24.772-10.46c10.946,0,19.087,3.938,24.772,10.458c2.321-3.975,5.777-8.201,10.613-9.773c1.48-0.48,3.004-0.685,4.529-0.685c8.855,0,17.685,6.929,17.685,6.929S115.381,54.074,105.295,57.347z"/>
    <path fill="#8caaee" d="M57.6,80c0-5.301-4.299-9.6-9.6-9.6s-9.6,4.299-9.6,9.6c0,5.301,4.299,9.6,9.6,9.6S57.6,85.301,57.6,80z M48,83.2c-1.764,0-3.2-1.436-3.2-3.2s1.436-3.2,3.2-3.2s3.2,1.436,3.2,3.2S49.764,83.2,48,83.2z"/>
    <path fill="#8caaee" d="M80,70.401c-5.301,0-9.6,4.299-9.6,9.6c0,5.301,4.299,9.6,9.6,9.6c5.301,0,9.6-4.299,9.6-9.6C89.6,74.7,85.301,70.401,80,70.401z M80,83.2c-1.764,0-3.2-1.436-3.2-3.2s1.436-3.2,3.2-3.2s3.2,1.436,3.2,3.2S81.764,83.2,80,83.2z"/>
    <path fill="#8caaee" d="M65.63,92.792l-0.832,0.004l-0.798,0.004l-0.796-0.004l-0.832-0.004c-10.084,0-11.172,6.72-11.172,9.608c0,7.128,7.795,11.172,10.184,12.241c0.832,0.373,1.724,0.559,2.616,0.559s1.784-0.186,2.616-0.559c2.389-1.069,10.184-5.113,10.184-12.241C76.8,99.512,75.712,92.792,65.63,92.792z M64,108.8c0,0-6.4-2.865-6.4-6.4c0-2.972,2.024-3.208,4.77-3.208c0.521,0,1.067,0.008,1.63,0.008c0.563,0,1.109-0.008,1.63-0.008c2.746,0,4.77,0.236,4.77,3.208C70.4,105.935,64,108.8,64,108.8z"/>
</svg>
