<?xml version="1.0" encoding="UTF-8" standalone="no"?>
<!-- Uploaded to: SVG Repo, www.svgrepo.com, Generator: SVG Repo Mixer Tools -->

<svg
   height="128"
   width="128"
   version="1.1"
   id="Layer_1"
   viewBox="0 0 81.9208 81.9208"
   xml:space="preserve"
   sodipodi:docname="zordeer.svg"
   inkscape:version="1.2.2 (b0a8486541, 2022-12-01)"
   xmlns:inkscape="http://www.inkscape.org/namespaces/inkscape"
   xmlns:sodipodi="http://sodipodi.sourceforge.net/DTD/sodipodi-0.dtd"
   xmlns="http://www.w3.org/2000/svg"
   xmlns:svg="http://www.w3.org/2000/svg"
   xmlns:rdf="http://www.w3.org/1999/02/22-rdf-syntax-ns#"
   xmlns:cc="http://creativecommons.org/ns#"><defs
   id="defs23" /><sodipodi:namedview
   id="namedview21"
   pagecolor="#ffffff"
   bordercolor="#000000"
   borderopacity="0.25"
   inkscape:showpageshadow="2"
   inkscape:pageopacity="0.0"
   inkscape:pagecheckerboard="0"
   inkscape:deskcolor="#d1d1d1"
   showgrid="false"
   inkscape:zoom="4.7093312"
   inkscape:cx="54.784849"
   inkscape:cy="62.323075"
   inkscape:window-width="1600"
   inkscape:window-height="845"
   inkscape:window-x="0"
   inkscape:window-y="0"
   inkscape:window-maximized="1"
   inkscape:current-layer="Layer_1" />
<path
   style="fill:#8caaee;stroke-width:0.160001;fill-opacity:1"
   d="m 40.123188,71.502138 c -0.88608,-0.397284 -5.307043,-2.547705 -5.307043,-5.965178 0,-4.10148 3.839362,-4.10148 5.100963,-4.10148 h 2.084802 c 1.261601,0 5.100963,0 5.100963,4.10148 0,3.417473 -4.420963,5.567894 -5.307043,5.965178 l -0.835521,0.375524 z"
   id="path2" />
<ellipse
   style="fill:#8caaee;stroke-width:0.160001;fill-opacity:1"
   cx="30.720142"
   cy="51.200821"
   id="circle4"
   rx="4.0960026"
   ry="4.0960402" />
<path
   style="fill:#303446;stroke-width:0.160001;fill-opacity:1"
   d="m 40.960149,79.8731 c -5.464004,0 -22.396975,-9.067289 -24.559696,-26.368898 C 15.855652,49.1488 16.453733,44.656756 18.279174,39.543586 16.735013,39.397505 15.264452,39.098462 13.885571,38.650617 6.8663666,36.370435 2.6038038,30.447657 2.4263637,30.196455 L 1.2972429,28.604439 2.8332439,27.400268 C 3.0871641,27.200906 9.1137282,22.5287 15.416132,22.5287 c 1.243841,0 2.431682,0.181602 3.530722,0.539365 2.416642,0.785128 4.586083,2.452184 6.473125,4.967089 4.060482,-3.656356 9.276006,-5.506454 15.54017,-5.506454 6.264164,0 11.479688,1.848658 15.54017,5.505014 1.886882,-2.514905 4.057763,-4.182121 6.474405,-4.967089 1.100481,-0.356323 2.288321,-0.537925 3.529442,-0.537925 6.303684,0 12.330408,4.672206 12.582889,4.871568 l 1.536001,1.204171 -1.129121,1.590576 c -0.17744,0.252642 -4.440003,6.17414 -11.460648,8.454162 -1.379041,0.447845 -2.849442,0.746888 -4.393603,0.892969 1.825441,5.11189 2.423522,9.603774 1.878722,13.960616 C 63.357124,70.805811 46.424153,79.8731 40.960149,79.8731 Z M 39.912948,61.43548 c -3.429762,0.0014 -5.096803,1.343533 -5.096803,4.10148 0,3.413313 4.420963,5.567894 5.308483,5.965178 0.263521,0.118721 0.546081,0.178882 0.835521,0.178882 0.28944,0 0.572,-0.06 0.841121,-0.180162 0.88208,-0.396004 5.302883,-2.550425 5.302883,-5.963898 0,-2.759387 -1.668481,-4.10148 -5.100963,-4.10148 z m 11.287208,-14.3307 c -2.258242,0 -4.096003,1.837778 -4.096003,4.09604 0,2.258262 1.837761,4.09604 4.096003,4.09604 2.258241,0 4.096003,-1.837778 4.096003,-4.09604 0,-2.258262 -1.837762,-4.09604 -4.096003,-4.09604 z m -20.480014,0 c -2.258241,0 -4.096003,1.837778 -4.096003,4.09604 0,2.258262 1.837762,4.09604 4.096003,4.09604 2.258242,0 4.096003,-1.837778 4.096003,-4.09604 0,-2.258262 -1.837761,-4.09604 -4.096003,-4.09604 z"
   id="path6" />
<ellipse
   style="fill:#8caaee;stroke-width:0.160001;fill-opacity:1"
   cx="51.200161"
   cy="51.200821"
   id="circle8"
   rx="4.0960026"
   ry="4.0960402" />
<g
   id="g18"
   transform="matrix(0.16000011,0,0,0.16000156,-1.980062e-4,-1.6000156e-4)">
	<path
   style="fill:#8caaee;fill-opacity:1"
   d="m 502.206,161.18 c -4.326,-3.396 -43.52,-33.178 -86.545,-33.178 -9.105,0 -17.86,1.34 -26.027,3.994 -14.071,4.574 -26.871,13.056 -38.263,25.344 -6.059,-4.471 -12.527,-8.329 -19.234,-11.793 46.097,-26.522 77.466,-75.844 77.466,-132.745 0,-7.074 -5.726,-12.8 -12.8,-12.8 -7.074,0 -12.8,5.726 -12.8,12.8 0,21.982 -6.084,42.368 -15.881,60.459 -13.252,-6.059 -22.519,-19.362 -22.519,-34.859 0,-7.074 -5.726,-12.8 -12.8,-12.8 -7.074,0 -12.8,5.726 -12.8,12.8 0,24.32 13.798,45.167 33.843,55.927 -14.746,17.655 -33.929,31.172 -56.081,38.886 -13.21,-3.166 -27.025,-5.214 -41.762,-5.214 -14.737,0 -28.553,2.048 -41.754,5.222 -22.153,-7.714 -41.335,-21.231 -56.081,-38.886 20.036,-10.769 33.835,-31.616 33.835,-55.936 0,-7.074 -5.726,-12.8 -12.8,-12.8 -7.074,0 -12.8,5.726 -12.8,12.8 0,15.497 -9.267,28.8 -22.519,34.859 -9.796,-18.091 -15.881,-38.477 -15.881,-60.459 0,-7.074 -5.726,-12.8 -12.8,-12.8 -7.074,0 -12.8,5.726 -12.8,12.8 0,56.9 31.369,106.214 77.466,132.745 -6.707,3.465 -13.175,7.322 -19.234,11.793 -11.392,-12.288 -24.192,-20.77 -38.272,-25.344 -8.158,-2.645 -16.913,-3.994 -26.01,-3.994 -43.034,0 -82.219,29.781 -86.554,33.178 -10.743,8.431 -12.979,23.808 -5.077,34.944 1.212,1.707 30.251,42.069 78.114,57.609 4.693,1.527 9.532,2.799 14.498,3.814 -6.63,22.434 -11.162,49.34 -7.526,78.421 14.43,115.507 129.135,176.034 166.195,176.034 37.06,0 151.765,-60.527 166.204,-176.026 3.635,-29.082 -0.896,-55.996 -7.526,-78.421 4.966,-1.024 9.805,-2.295 14.498,-3.814 47.863,-15.548 76.902,-55.902 78.114,-57.609 7.892,-11.143 5.656,-26.52 -5.087,-34.951 z m -80.939,68.207 c -12.988,4.215 -25.958,5.615 -37.623,5.615 -1.485,0 -2.953,-0.026 -4.386,-0.068 11.895,28.151 22.025,62.012 17.545,97.869 -12.8,102.4 -115.2,153.6 -140.8,153.6 -25.6,0 -128,-51.2 -140.8,-153.6 -4.48,-35.857 5.649,-69.717 17.553,-97.869 -1.442,0.043 -2.901,0.068 -4.386,0.068 -11.665,0 -24.644,-1.391 -37.623,-5.615 -40.346,-13.099 -65.143,-48.068 -65.143,-48.068 0,0 35.319,-27.716 70.741,-27.716 6.093,0 12.194,0.819 18.116,2.748 19.345,6.281 33.169,23.185 42.453,39.091 22.741,-26.086 55.305,-41.839 99.089,-41.839 43.784,0 76.348,15.753 99.089,41.83 9.284,-15.898 23.108,-32.802 42.453,-39.091 5.922,-1.92 12.015,-2.739 18.116,-2.739 35.422,0 70.741,27.716 70.741,27.716 0,0 -24.798,34.97 -65.135,48.068 z"
   id="path10" />
	<path
   style="fill:#8caaee;fill-opacity:1"
   d="m 230.402,320.003 c 0,-21.205 -17.195,-38.4 -38.4,-38.4 -21.205,0 -38.4,17.195 -38.4,38.4 0,21.205 17.195,38.4 38.4,38.4 21.205,0 38.4,-17.195 38.4,-38.4 z m -38.4,12.8 c -7.057,0 -12.8,-5.743 -12.8,-12.8 0,-7.057 5.743,-12.8 12.8,-12.8 7.057,0 12.8,5.743 12.8,12.8 0,7.057 -5.743,12.8 -12.8,12.8 z"
   id="path12" />
	<path
   style="fill:#8caaee;fill-opacity:1"
   d="m 320.002,281.603 c -21.205,0 -38.4,17.195 -38.4,38.4 0,21.205 17.195,38.4 38.4,38.4 21.205,0 38.4,-17.195 38.4,-38.4 0,-21.206 -17.195,-38.4 -38.4,-38.4 z m 0,51.2 c -7.057,0 -12.8,-5.743 -12.8,-12.8 0,-7.057 5.743,-12.8 12.8,-12.8 7.057,0 12.8,5.743 12.8,12.8 0,7.057 -5.743,12.8 -12.8,12.8 z"
   id="path14" />
	<path
   style="fill:#8caaee;fill-opacity:1"
   d="m 262.521,371.169 -3.328,0.017 -3.191,0.017 -3.183,-0.017 -3.328,-0.017 c -40.337,0 -44.689,26.88 -44.689,38.434 0,28.51 31.181,44.689 40.738,48.964 3.328,1.493 6.895,2.236 10.462,2.236 3.567,0 7.134,-0.742 10.462,-2.236 9.557,-4.275 40.738,-20.454 40.738,-48.964 0,-11.554 -4.352,-38.434 -44.681,-38.434 z m -6.519,64.034 c 0,0 -25.6,-11.46 -25.6,-25.6 0,-11.887 8.098,-12.834 19.081,-12.834 2.082,0 4.267,0.034 6.519,0.034 2.252,0 4.437,-0.034 6.519,-0.034 10.982,0 19.081,0.947 19.081,12.834 0,14.139 -25.6,25.6 -25.6,25.6 z"
   id="path16" />
</g>
<metadata
   id="metadata875"><rdf:RDF><cc:Work
       rdf:about=""><cc:license
         rdf:resource="https://www.gnu.org/licenses/gpl-3.0.html" /></cc:Work></rdf:RDF></metadata></svg>
